<svg width="1200" height="630" viewBox="0 0 1200 630" fill="none" xmlns="http://www.w3.org/2000/svg">
  <defs>
    <linearGradient id="background" x1="86" y1="34" x2="1118" y2="608" gradientUnits="userSpaceOnUse">
      <stop stop-color="#151A24"/>
      <stop offset="0.55" stop-color="#090B10"/>
      <stop offset="1" stop-color="#050608"/>
    </linearGradient>
    <radialGradient id="glow" cx="0" cy="0" r="1" gradientUnits="userSpaceOnUse" gradientTransform="translate(982 88) rotate(128) scale(529 632)">
      <stop stop-color="#38BDF8" stop-opacity="0.42"/>
      <stop offset="0.55" stop-color="#0EA5E9" stop-opacity="0.08"/>
      <stop offset="1" stop-color="#0EA5E9" stop-opacity="0"/>
    </radialGradient>
    <linearGradient id="drop" x1="926" y1="120" x2="1059" y2="433" gradientUnits="userSpaceOnUse">
      <stop stop-color="#F5FCFF"/>
      <stop offset="0.26" stop-color="#BCEBFF"/>
      <stop offset="0.62" stop-color="#0EA5E9"/>
      <stop offset="1" stop-color="#0369A1"/>
    </linearGradient>
    <filter id="shadow" x="835" y="78" width="311" height="430" filterUnits="userSpaceOnUse">
      <feGaussianBlur in="SourceAlpha" stdDeviation="25" result="blur"/>
      <feOffset dy="18"/>
      <feColorMatrix values="0 0 0 0 0.055 0 0 0 0 0.647 0 0 0 0 0.914 0 0 0 0.28 0"/>
      <feBlend in="SourceGraphic"/>
    </filter>
  </defs>
  <rect width="1200" height="630" rx="36" fill="url(#background)"/>
  <rect width="1200" height="630" rx="36" fill="url(#glow)"/>
  <rect x="42" y="42" width="1116" height="546" rx="27" stroke="white" stroke-opacity="0.09" stroke-width="2"/>
  <circle cx="102" cy="102" r="13" fill="#38BDF8"/>
  <text x="132" y="117" fill="#ECF8FF" font-family="Inter, Arial, sans-serif" font-size="38" font-weight="750" letter-spacing="5">DZHERO</text>
  <text x="88" y="260" fill="white" font-family="Inter, Arial, sans-serif" font-size="67" font-weight="760">Your AI content producer</text>
  <text x="91" y="324" fill="#AEB8C8" font-family="Inter, Arial, sans-serif" font-size="30" font-weight="450">Real signals. Brand-ready adaptations.</text>
  <text x="91" y="367" fill="#AEB8C8" font-family="Inter, Arial, sans-serif" font-size="30" font-weight="450">A content plan you can actually shoot.</text>
  <g transform="translate(90 449)">
    <rect width="180" height="54" rx="27" fill="#111A23" stroke="#38BDF8" stroke-opacity="0.45"/>
    <text x="90" y="35" text-anchor="middle" fill="#DDF5FF" font-family="Inter, Arial, sans-serif" font-size="20" font-weight="650">SIGNALS</text>
    <path d="M198 27H238" stroke="#4B6477" stroke-width="3" stroke-linecap="round"/>
    <path d="M230 19L238 27L230 35" stroke="#4B6477" stroke-width="3" stroke-linecap="round" stroke-linejoin="round"/>
    <rect x="256" width="220" height="54" rx="27" fill="#111A23" stroke="#38BDF8" stroke-opacity="0.45"/>
    <text x="366" y="35" text-anchor="middle" fill="#DDF5FF" font-family="Inter, Arial, sans-serif" font-size="20" font-weight="650">ADAPTATION</text>
    <path d="M494 27H534" stroke="#4B6477" stroke-width="3" stroke-linecap="round"/>
    <path d="M526 19L534 27L526 35" stroke="#4B6477" stroke-width="3" stroke-linecap="round" stroke-linejoin="round"/>
    <rect x="552" width="226" height="54" rx="27" fill="#0D3043" stroke="#67E8F9" stroke-opacity="0.65"/>
    <text x="665" y="35" text-anchor="middle" fill="#EAFBFF" font-family="Inter, Arial, sans-serif" font-size="20" font-weight="650">CONTENT PLAN</text>
  </g>
  <g filter="url(#shadow)">
    <path d="M986 108C969 173 906 235 889 307C869 393 920 461 986 461C1052 461 1103 393 1083 307C1066 235 1003 173 986 108Z" fill="#07131B" stroke="url(#drop)" stroke-width="10" stroke-linejoin="round"/>
    <path d="M919 319C905 373 934 428 986 444" stroke="#38BDF8" stroke-width="13" stroke-linecap="round"/>
    <path d="M1008 165C1028 230 1063 275 1067 327" stroke="#F4FCFF" stroke-opacity="0.82" stroke-width="12" stroke-linecap="round"/>
  </g>
  <text x="1110" y="548" text-anchor="end" fill="#718096" font-family="Inter, Arial, sans-serif" font-size="20">dzhero.com.ua</text>
</svg>
